<?xml version="1.0" standalone="no"?>
<!DOCTYPE svg PUBLIC "-//W3C//DTD SVG 20010904//EN"
 "http://www.w3.org/TR/2001/REC-SVG-20010904/DTD/svg10.dtd">
<svg version="1.0" xmlns="http://www.w3.org/2000/svg"
 width="140.000000pt" height="140.000000pt" viewBox="0 0 140.000000 140.000000"
 preserveAspectRatio="xMidYMid meet">
<metadata>
Created by potrace 1.11, written by Peter Selinger 2001-2013
</metadata>
<g transform="translate(0.000000,140.000000) scale(0.100000,-0.100000)"
fill="#000000" stroke="none">
<path d="M0 695 l0 -675 700 0 700 0 0 675 0 675 -700 0 -700 0 0 -675z m863
312 c75 -38 109 -86 115 -167 6 -76 -10 -121 -58 -164 -52 -47 -121 -66 -242
-66 l-98 0 0 -124 c0 -94 -3 -126 -14 -135 -9 -7 -41 -11 -83 -9 l-68 3 -3
335 c-1 184 0 341 3 348 4 11 43 13 198 10 188 -3 193 -4 250 -31z"/>
<path d="M580 826 l0 -96 80 0 c84 0 132 15 144 45 12 33 6 93 -13 116 -17 22
-29 24 -115 27 l-96 4 0 -96z"/>
</g>
</svg>
